<svg xmlns="http://www.w3.org/2000/svg" width="244.437" height="156.584" viewBox="0 0 244.437 156.584">
  <g id="Mujer_360_logo" data-name="Mujer 360 logo" transform="translate(-149.16 -116.685)">
    <path id="Trazado_5" data-name="Trazado 5" d="M314.574,158.564a24.192,24.192,0,0,0-3.615,1.775c-6.107,3.676-10.408,10.961-8.945,17.937.9,4.271,3.715,7.847,6.51,11.2,6.781,8.127,82.51,89.1,89.44,81.978C419.8,249,425.436,215.52,426.393,184.218c.628-20.528-.85-41.162-10.738-59.6-1.139-2.122-2.456-4.29-4.544-5.489-4.1-2.357-9.617.148-12.179,4.128-11.332,17.606-10.133,46.129-9.558,66.338C375.826,169.827,338.283,149.244,314.574,158.564Z" transform="translate(-34.396)" fill="none" stroke="#d4a9cf" stroke-linecap="round" stroke-linejoin="round" stroke-width="3"/>
    <g id="Grupo_2" data-name="Grupo 2" transform="translate(290.135 176.897)">
      <path id="Trazado_6" data-name="Trazado 6" d="M343.628,258.483a12.594,12.594,0,0,1-7.573-2.417q-3.34-2.415-4.886-7.993v-.093c0-.061.012-.093.04-.093h.122a4.037,4.037,0,0,1,.9.186,13.4,13.4,0,0,0,2.4.744,17.628,17.628,0,0,0,3.949.372l2.118-.093a31.3,31.3,0,0,0,8.917-3.114,46.657,46.657,0,0,0,9.243-5.949q4.071-3.391,4.641-6.367l.082-.558q0-3.346-6.189-3.625a26.274,26.274,0,0,0-8.957,1.952h-.163c-.055,0-.191-.154-.407-.465l-.325.093q-.409,0-1.1-1.348a23.064,23.064,0,0,1-1.3-3.16,10.229,10.229,0,0,1-.611-3.207,2.309,2.309,0,0,1,.082-.651,1.841,1.841,0,0,1,.488-1.022q1.222-.837,5.619-4.415t8.591-7.622q4.194-4.043,4.764-6.367a2.015,2.015,0,0,0-.082-.558q0-.465-1.3-.465-2.363,0-7.9,2.184a41.021,41.021,0,0,0-11.4,7.2H343.3a2.4,2.4,0,0,1-.977-.558,5.686,5.686,0,0,1-1.344-1.534,4.035,4.035,0,0,1-.61-2.184V206.9a1.721,1.721,0,0,1,.081-.465,1.2,1.2,0,0,1,.245-.465,19.262,19.262,0,0,1,5.985-6.367,37.181,37.181,0,0,1,7.614-4.09,20.455,20.455,0,0,1,5.619-1.534,6.571,6.571,0,0,1,3.991,1.812,16.176,16.176,0,0,1,3.827,4.787,13.335,13.335,0,0,1,1.629,6.506,10.332,10.332,0,0,1-.163,1.766,11.74,11.74,0,0,1-1.709,4.647,45.341,45.341,0,0,1-7.981,8.923l1.384.279q3.42,1.115,5.212,5.949a26.952,26.952,0,0,1,1.792,9.388,20.312,20.312,0,0,1-.163,2.7,6.2,6.2,0,0,1-.489,2.045q-2.607,6.134-9.609,10.921T343.628,258.483Z" transform="translate(-331.169 -193.978)" fill="#55bec1"/>
    </g>
    <g id="Grupo_3" data-name="Grupo 3" transform="translate(324.825 177.641)">
      <path id="Trazado_7" data-name="Trazado 7" d="M389.8,257.491a10.627,10.627,0,0,1-7.288-2.788,20.054,20.054,0,0,1-4.846-6.367,14.483,14.483,0,0,1-1.709-5.9,50.715,50.715,0,0,1,3.379-18.961,54.718,54.718,0,0,1,8.429-14.593,48.543,48.543,0,0,1,10.342-9.666,26.058,26.058,0,0,1,9.365-4.276h.163a3.227,3.227,0,0,1,1.75.883,9.805,9.805,0,0,1,1.955,2.138,4.165,4.165,0,0,1,.854,2.277,1.486,1.486,0,0,1-.57,1.208,75.661,75.661,0,0,0-17.752,18.589h.407q6.353,0,9.691,4.647a18.156,18.156,0,0,1,3.339,10.875A24.11,24.11,0,0,1,404.7,246.2a22.83,22.83,0,0,1-7.98,8.969A13.04,13.04,0,0,1,389.8,257.491Zm-3.42-5.2q2.522,0,6.066-3.95a42.22,42.22,0,0,0,6.23-9.295,21.673,21.673,0,0,0,2.688-9.527,6.762,6.762,0,0,0-1.3-4.276,4.655,4.655,0,0,0-3.42-1.208,12.877,12.877,0,0,0-6.515,1.952q-6.841,12.641-6.84,20.262a8.066,8.066,0,0,0,1.547,5.3A1.991,1.991,0,0,0,386.379,252.286Z" transform="translate(-375.956 -194.938)" fill="#55bec1"/>
    </g>
    <g id="Grupo_4" data-name="Grupo 4" transform="translate(352.511 180.987)">
      <path id="Trazado_8" data-name="Trazado 8" d="M425.544,258.836a12.19,12.19,0,0,1-6.881-2.277,13.4,13.4,0,0,1-5.008-6.46,38.24,38.24,0,0,1-1.954-12.362,60.581,60.581,0,0,1,2.728-17.892,57.256,57.256,0,0,1,6.6-14.732q3.867-5.856,7.125-5.856h.163q7.492.837,10.26,4.926a14.246,14.246,0,0,1,3.746,6.413,30.071,30.071,0,0,1,1.14,8.458,58.941,58.941,0,0,1-1.873,14.407,88.362,88.362,0,0,1-4.438,13.384,43.567,43.567,0,0,1-4.763,8.83A8.9,8.9,0,0,1,425.544,258.836Zm-1.791-4q.568,0,2.809-2.556a45.573,45.573,0,0,0,5.008-7.482,56.374,56.374,0,0,0,4.8-12.037,58.29,58.29,0,0,0,2.035-16.033A72.71,72.71,0,0,0,438,209.2l-.081-.744q-1.3-2.231-3.094-2.231a2.72,2.72,0,0,0-1.466.465q-5.212,4.277-8.876,16.916t-3.664,22.121a23.263,23.263,0,0,0,.692,6.181Q422.2,254.375,423.753,254.84Z" transform="translate(-411.701 -199.258)" fill="#55bec1"/>
    </g>
    <g id="Grupo_5" data-name="Grupo 5" transform="translate(240.85 247.095)">
      <path id="Trazado_9" data-name="Trazado 9" d="M273.133,290.012a2.7,2.7,0,0,1,1.712,2.678c0,1.934-1.379,3.011-3.313,3.011h-3.788a.191.191,0,0,1-.206-.206V284.814a.191.191,0,0,1,.206-.206h3.677c2.012,0,3.3,1.03,3.3,2.9a2.44,2.44,0,0,1-1.585,2.409Q273.037,289.964,273.133,290.012Zm-4.469-4.342v3.772a.074.074,0,0,0,.079.079h2.678a1.929,1.929,0,0,0,2.187-1.918,1.972,1.972,0,0,0-2.187-2.013h-2.678A.075.075,0,0,0,268.663,285.67Zm5.056,6.925a2.049,2.049,0,0,0-2.251-2.123h-2.726a.074.074,0,0,0-.079.079v4.073a.074.074,0,0,0,.079.079h2.789A2.011,2.011,0,0,0,273.719,292.6Z" transform="translate(-267.538 -284.608)" fill="#4c334f"/>
    </g>
    <g id="Grupo_6" data-name="Grupo 6" transform="translate(252.797 247.095)">
      <path id="Trazado_10" data-name="Trazado 10" d="M286.277,295.48v-4.644a.222.222,0,0,0-.032-.1L283,284.861c-.079-.142-.016-.253.143-.253h.761a.244.244,0,0,1,.237.142l2.647,4.786q.048.072.1,0l2.662-4.786a.246.246,0,0,1,.238-.142h.761c.158,0,.221.111.143.253l-3.249,5.88a.221.221,0,0,0-.032.1v4.644a.191.191,0,0,1-.206.206h-.713A.191.191,0,0,1,286.277,295.48Z" transform="translate(-282.962 -284.608)" fill="#4c334f"/>
    </g>
    <g id="Grupo_7" data-name="Grupo 7" transform="translate(271.818 246.968)">
      <path id="Trazado_11" data-name="Trazado 11" d="M307.52,292.3v-4.374a3.729,3.729,0,0,1,7.433-.127v.159a.191.191,0,0,1-.206.205h-.713c-.126,0-.206-.063-.206-.174v-.174a2.358,2.358,0,0,0-2.583-2.393,2.4,2.4,0,0,0-2.6,2.472v4.437a2.428,2.428,0,0,0,2.647,2.472,2.281,2.281,0,0,0,2.536-2.33v-1.426a.075.075,0,0,0-.079-.079h-2.266a.192.192,0,0,1-.206-.207v-.57a.191.191,0,0,1,.206-.206h3.265a.191.191,0,0,1,.206.206v2a3.377,3.377,0,0,1-3.709,3.6A3.419,3.419,0,0,1,307.52,292.3Z" transform="translate(-307.52 -284.444)" fill="#4c334f"/>
      <path id="Trazado_12" data-name="Trazado 12" d="M330.561,295.528l-.634-1.934c-.015-.031-.032-.063-.079-.063h-4.723c-.048,0-.063.032-.08.063l-.617,1.934a.206.206,0,0,1-.222.174h-.761a.167.167,0,0,1-.175-.238l3.487-10.682a.206.206,0,0,1,.221-.174h1.015a.206.206,0,0,1,.222.174l3.5,10.682a.166.166,0,0,1-.174.238h-.761A.206.206,0,0,1,330.561,295.528Zm-5.1-2.916h4.073c.048,0,.08-.032.064-.1l-2.06-6.482c-.015-.079-.079-.079-.1,0l-2.044,6.482C325.378,292.58,325.41,292.611,325.458,292.611Z" transform="translate(-311.068 -284.481)" fill="#4c334f"/>
    </g>
    <g id="Grupo_8" data-name="Grupo 8" transform="translate(297.699 247.095)">
      <path id="Trazado_13" data-name="Trazado 13" d="M346.528,290.012a2.693,2.693,0,0,1,1.712,2.678c0,1.934-1.379,3.011-3.312,3.011h-3.788a.191.191,0,0,1-.205-.206V284.814a.191.191,0,0,1,.205-.206h3.677c2.013,0,3.3,1.03,3.3,2.9a2.439,2.439,0,0,1-1.585,2.409Q346.433,289.964,346.528,290.012Zm-4.469-4.342v3.772a.075.075,0,0,0,.079.079h2.678A1.93,1.93,0,0,0,347,287.6a1.973,1.973,0,0,0-2.188-2.013h-2.678A.075.075,0,0,0,342.059,285.67Zm5.055,6.925a2.049,2.049,0,0,0-2.25-2.123h-2.726a.075.075,0,0,0-.079.079v4.073a.075.075,0,0,0,.079.079h2.79A2.01,2.01,0,0,0,347.114,292.6Z" transform="translate(-340.934 -284.608)" fill="#4c334f"/>
    </g>
    <g id="Grupo_9" data-name="Grupo 9" transform="translate(309.661 247.095)">
      <path id="Trazado_14" data-name="Trazado 14" d="M359.693,295.48v-4.644a.221.221,0,0,0-.032-.1l-3.248-5.88c-.08-.142-.016-.253.143-.253h.761a.245.245,0,0,1,.238.142l2.647,4.786c.032.048.064.048.1,0l2.662-4.786a.245.245,0,0,1,.238-.142h.761c.158,0,.221.111.143.253l-3.249,5.88a.233.233,0,0,0-.032.1v4.644a.191.191,0,0,1-.205.206H359.9A.192.192,0,0,1,359.693,295.48Z" transform="translate(-356.379 -284.608)" fill="#4c334f"/>
    </g>
    <g id="Grupo_10" data-name="Grupo 10" transform="translate(328.082 247.079)">
      <path id="Trazado_15" data-name="Trazado 15" d="M387.466,295.528l-.634-1.934c-.016-.031-.032-.063-.079-.063h-4.723c-.047,0-.064.032-.079.063l-.618,1.934a.206.206,0,0,1-.222.174h-.761a.166.166,0,0,1-.174-.238l3.487-10.682a.206.206,0,0,1,.222-.174H384.9a.206.206,0,0,1,.222.174l3.5,10.682a.166.166,0,0,1-.174.238h-.761A.205.205,0,0,1,387.466,295.528Zm-5.1-2.916h4.073c.047,0,.079-.032.063-.1l-2.06-6.482c-.016-.079-.08-.079-.1,0l-2.045,6.482C382.282,292.58,382.314,292.611,382.362,292.611Z" transform="translate(-380.161 -284.592)" fill="#4c334f"/>
      <path id="Trazado_16" data-name="Trazado 16" d="M404.1,295.539l-2.314-4.882a.131.131,0,0,0-.1-.064h-2.647a.075.075,0,0,0-.08.08v4.818a.192.192,0,0,1-.206.206h-.713a.191.191,0,0,1-.206-.206v-10.7a.191.191,0,0,1,.206-.207H402.1a2.879,2.879,0,0,1,3.043,3.043,2.8,2.8,0,0,1-2.219,2.884c-.063.016-.063.047-.047.1l2.362,4.849c.064.143,0,.238-.16.238h-.729A.282.282,0,0,1,404.1,295.539Zm-5.135-9.89v3.963a.075.075,0,0,0,.08.079h2.932a2.06,2.06,0,0,0,0-4.121h-2.932A.075.075,0,0,0,398.963,285.649Z" transform="translate(-384.146 -284.587)" fill="#4c334f"/>
    </g>
    <g id="Grupo_11" data-name="Grupo 11" transform="translate(354.294 246.968)">
      <path id="Trazado_17" data-name="Trazado 17" d="M414,292.289v-4.358a3.412,3.412,0,0,1,3.725-3.487c2.234,0,3.724,1.363,3.724,3.423,0,.1-.079.158-.206.174l-.713.047c-.126.016-.206-.032-.206-.1V287.9a2.6,2.6,0,0,0-5.2,0v4.437a2.6,2.6,0,0,0,5.2,0,.164.164,0,0,1,.206-.174l.713.032c.127,0,.206.032.206.079v.08a3.733,3.733,0,0,1-7.449-.064Z" transform="translate(-414.003 -284.444)" fill="#4c334f"/>
    </g>
    <g id="Grupo_12" data-name="Grupo 12" transform="translate(367.433 247.095)">
      <path id="Trazado_18" data-name="Trazado 18" d="M437.939,285.59H432.17a.075.075,0,0,0-.08.08v3.883a.075.075,0,0,0,.08.079H436.2a.191.191,0,0,1,.206.206v.571a.191.191,0,0,1-.206.206H432.17a.075.075,0,0,0-.08.079v3.946a.075.075,0,0,0,.08.08h5.769a.191.191,0,0,1,.205.206v.57a.191.191,0,0,1-.205.206h-6.768a.191.191,0,0,1-.205-.206V284.814a.191.191,0,0,1,.205-.206h6.768a.191.191,0,0,1,.205.206v.57A.191.191,0,0,1,437.939,285.59Z" transform="translate(-430.966 -284.608)" fill="#4c334f"/>
    </g>
    <path id="Trazado_19" data-name="Trazado 19" d="M213.185,253.806a7.418,7.418,0,0,1-4.562-4.694,18.434,18.434,0,0,1-.783-5,32.132,32.132,0,0,1,.871-7.845q2.639-11.841,10.309-28.431a58.076,58.076,0,0,0,2.776-6.784,3.409,3.409,0,0,0,.122-.827q-.04-1.48-1.913-1.43-5.658.15-18.142,20.08-4.291,6.783-7.79,13.463,1.86-15.4,2.412-27.067.131-3.174.088-4.777a7.509,7.509,0,0,0-.319-2.5,1.183,1.183,0,0,0-1.251-.913,9.025,9.025,0,0,0-3.568,1.454,28.7,28.7,0,0,1-6.555,3.016,19.994,19.994,0,0,1-4.626.988,11.734,11.734,0,0,1-6.468-1.843.889.889,0,0,0-.582-.191,1.145,1.145,0,0,0-.956.643,1.346,1.346,0,0,0-.163.663,1.216,1.216,0,0,0,.569,1.055,13.358,13.358,0,0,0,7.452,2.188,28.539,28.539,0,0,0,12.294-4.2,1.829,1.829,0,0,1,.391-.215q-1.624,3.954-6.059,12.119a199.354,199.354,0,0,1-12.147,19.117q-7.76,10.5-14.284,10.673a8.368,8.368,0,0,1-3.261-.571q-5.413-2.858-5.625-10.716l-.016-.617a21.844,21.844,0,0,1,5.318-12.821q4.969-5.648,9.007-5.758,3.243-.087,3.374,4.808a11.019,11.019,0,0,1-2.994,8.068,15.965,15.965,0,0,1-2.552,2.311,9.183,9.183,0,0,1-1.33.838,1.175,1.175,0,0,0-.655,1.171,1.212,1.212,0,0,0,.608,1.135,1.547,1.547,0,0,0,.544.109,1.185,1.185,0,0,0,.429-.094,10.781,10.781,0,0,0,1.472-.924,18.187,18.187,0,0,0,3.063-2.778,14.241,14.241,0,0,0,2.712-4.415,13.947,13.947,0,0,0,.933-5.563q-.45-7.356-5.819-7.212-5.145.468-10.429,6.536a24.685,24.685,0,0,0-5.921,14.484l.018.7q.257,9.544,7.1,13.106a9.365,9.365,0,0,0,3.988.758q7.781-.332,16.025-11.627,12.337-17.331,18.042-30.575-.134,5.767-1.28,18.146-1.168,11.682-2.124,17.635a14.1,14.1,0,0,0-1.567,4.816,1.574,1.574,0,0,0,.277.9,1.254,1.254,0,0,0,1.133.587,1.1,1.1,0,0,0,.839-.352,3.957,3.957,0,0,0,.6-1.086,36.212,36.212,0,0,0,.831-3.973q2.484-5.5,8.071-15.036,10.048-16.734,16.256-21.842a7.164,7.164,0,0,1,1.881-1.161q-.846,2.081-2.207,5.121-2.692,5.876-5.849,13.864a87.537,87.537,0,0,0-4.42,14.053,44.13,44.13,0,0,0-1.167,9.6q.256,9.542,6.922,12.039a.854.854,0,0,0,.362.074,1.142,1.142,0,0,0,1.022-.85,1.664,1.664,0,0,0,.062-.455,1.2,1.2,0,0,0-.789-1.173" transform="translate(0 -17.779)" fill="#8b438a"/>
    <path id="Trazado_20" data-name="Trazado 20" d="M283.735,226.622a23.7,23.7,0,0,0,.787-2.943,1.082,1.082,0,0,0-.824-1.131l-.434-.07q-.758.021-1.351,2.135a9.59,9.59,0,0,0-.425,1.575,1.138,1.138,0,0,0,.826,1.213.529.529,0,0,0,.363.113,1.168,1.168,0,0,0,1.058-.892" transform="translate(-29.833 -23.506)" fill="#8b438a"/>
    <path id="Trazado_21" data-name="Trazado 21" d="M271.535,231.848a22.376,22.376,0,0,0-8.75,2.52c-.107.057-.211.115-.315.176a1.288,1.288,0,1,0,1.335,2.2,15.507,15.507,0,0,1,6.509-2.066q-.333,3.715-3.5,12.238T255.073,264.85a20.532,20.532,0,0,1-5.385,4.261,10.971,10.971,0,0,1-4.306,1.516,5.039,5.039,0,0,1-3.423-1.226q-.95-.509-1.087-2.893-.086-3.209,3.365-7.705a1.274,1.274,0,0,0,.3-.872q-.036-1.319-1.117-1.287a1.2,1.2,0,0,0-.891.394q-4.117,5.132-4.006,9.327a7,7,0,0,0,1.9,5.054,6.875,6.875,0,0,0,4.774,1.848q5.514-.148,11.439-6.482,12.341-13.172,15.231-27.823a48.966,48.966,0,0,0,.932-5.581,1.721,1.721,0,0,0-.39-1.124,1.094,1.094,0,0,0-.878-.408" transform="translate(-20.146 -25.618)" fill="#8b438a"/>
    <path id="Trazado_22" data-name="Trazado 22" d="M258.217,239.839a1.258,1.258,0,0,0-.691-.188.982.982,0,0,0-.85.558c-.121.217-.255.445-.391.672-.562.943-1.247,1.972-2.069,3.1q-3.373,4.659-5.536,4.718-1.008.027-1.174-.792a2.74,2.74,0,0,1-.129-.778q-.072-2.673,2.731-8.429,1.936-3.139,3.646-6.6a1.368,1.368,0,0,0,.127-.62,1.319,1.319,0,0,0-.533-1.056,1.209,1.209,0,0,0-.654-.188q-1.118.03-4.6,7.327-6.286,10.377-11.107,10.794c-.481.013-.752-.027-.816-.122a1.717,1.717,0,0,0-.131-.182,2.393,2.393,0,0,1-.128-.737,15.385,15.385,0,0,1,1.475-5.515,71.725,71.725,0,0,1,4.692-9.264,1.678,1.678,0,0,0,.161-.745,1.359,1.359,0,0,0-.461-1.016,1.107,1.107,0,0,0-.69-.228,1.007,1.007,0,0,0-.888.559,67.225,67.225,0,0,0-3.74,7.1,32.628,32.628,0,0,0-2.59,6.984,19.1,19.1,0,0,0-.188,2.393,3.489,3.489,0,0,0,1.191,2.726,3.079,3.079,0,0,0,2.108.6q3.748-.1,8.33-5.409a8.627,8.627,0,0,0-.136,1.691q.08,3,2.231,3.851a3.6,3.6,0,0,0,1.3.211q3.677-.1,8.043-6.718c.251-.383.469-.729.672-1.055a15.994,15.994,0,0,0,1.117-2.023c.022-.055.044-.112.067-.165a1.286,1.286,0,0,0,.1-.432,1.236,1.236,0,0,0-.5-1.015" transform="translate(-19.055 -25.254)" fill="#8b438a"/>
    <path id="Trazado_23" data-name="Trazado 23" d="M303.812,236.793a1.073,1.073,0,0,0-.853.476q-6.718,9.112-12.158,9.257-2.992.08-4.3-3.136a4.532,4.532,0,0,1-.294-1.557l.019-.617a6.156,6.156,0,0,0,2.5.468,6.546,6.546,0,0,0,2.579-.645q5.558-2.536,7.032-6.734a7.644,7.644,0,0,0,.435-2.6,4.407,4.407,0,0,0-1.863-3.572,4.2,4.2,0,0,0-2.508-.757q-2.343.064-5.049,2.688a18.558,18.558,0,0,0-4.125,6.224A14.848,14.848,0,0,0,284,241.811a8.8,8.8,0,0,0,.467,2.623q1.967,4.763,6.543,4.641,6.236-.167,13.684-10.206a1.61,1.61,0,0,0,.263-.953,1.224,1.224,0,0,0-.4-.813,1.057,1.057,0,0,0-.747-.309M290.845,232a8.869,8.869,0,0,1,1.286-1.125,4.492,4.492,0,0,1,1.441-.78,4.447,4.447,0,0,1,.86-.167,2.162,2.162,0,0,1,1.753.777,1.685,1.685,0,0,1,.353,1.06,5.39,5.39,0,0,1-.283,1.572q-1,2.908-4.88,4.907a6.485,6.485,0,0,1-2.644.893,3.888,3.888,0,0,1-1.961-.482A17.393,17.393,0,0,1,290.845,232" transform="translate(-30.4 -24.609)" fill="#8b438a"/>
    <path id="Trazado_24" data-name="Trazado 24" d="M328.756,236.342a1.031,1.031,0,0,0-.618-.189,1.015,1.015,0,0,0-.92.641,25.29,25.29,0,0,1-4.165,6.082q-2.177,2.2-3.51,2.233-.795.022-.835-1.541a13.386,13.386,0,0,1,.791-4.138,51.837,51.837,0,0,1,3.6-8.37,1.61,1.61,0,0,0,.162-.7,1.362,1.362,0,0,0-.46-1.016,2.6,2.6,0,0,0-1.6-.616,3.934,3.934,0,0,0-2.519,1.549,5.45,5.45,0,0,1-3.84,2.038,5.315,5.315,0,0,1-.939-.057,17.041,17.041,0,0,0,1.394-3.125,8.3,8.3,0,0,0,.5-2.73,3.855,3.855,0,0,0-.8-2.387,2.427,2.427,0,0,0-2.062-.912,3.052,3.052,0,0,0-2.307,1.381,7.214,7.214,0,0,0-1.5,4.773,5.434,5.434,0,0,0,2.438,4.832l.109.038a6.012,6.012,0,0,0,3.3.735,6.864,6.864,0,0,0,4.807-2.31q-3.412,7.213-3.307,11.16a4.669,4.669,0,0,0,.926,2.919,2.672,2.672,0,0,0,2.245,1.03q4.883-.83,9.516-9.6a1.737,1.737,0,0,0,.126-.7,1.206,1.206,0,0,0-.532-1.015m-16.874-5.229a3.352,3.352,0,0,1-.519-1.88,4.759,4.759,0,0,1,.927-3.07,1.176,1.176,0,0,1,.816-.516,1.012,1.012,0,0,1,.4.278,1.141,1.141,0,0,1,.085.492q.041,1.521-1.713,4.7" transform="translate(-36.064 -23.646)" fill="#8b438a"/>
  </g>
</svg>
